<svg id="Layer_1" xmlns="http://www.w3.org/2000/svg" viewBox="0 0 97.6 46.5"><style>.st0{fill:#00a868}.st1{font-family:&apos;Exo-Black&apos;}.st2{font-size:30px}.st3{fill:#5c5c5c}.st4{fill:#0091ff}.st5{fill:#f80}</style><text id="XMLID_1_" transform="translate(34.337 36.795)"><tspan x="0" y="0" class="st0 st1 st2">w</tspan><tspan x="25.4" y="0" class="st3 st1 st2">l</tspan></text><g id="XMLID_8_"><g id="XMLID_9_"><path id="XMLID_10_" class="st3" d="M26.5 21.4c-4.3 0-7.9 3.5-7.9 7.9 0 4.3 3.5 7.9 7.9 7.9.7 0 4.7.2 4.8-1 .1-.9-1.7-1.2-3.5-1.1-.5-.1-.7-.5-.7-.9 0-.7.6-1.3 1.3-1.3H30c2.4 0 4.4-2 4.4-4.4-.1-4-3.6-7.1-7.9-7.1zm-4.8 7.8c-.7 0-1.3-.6-1.3-1.3s.6-1.3 1.3-1.3c.7 0 1.3.6 1.3 1.3s-.6 1.3-1.3 1.3zm2.6-3.5c-.7 0-1.3-.6-1.3-1.3 0-.7.6-1.3 1.3-1.3.7 0 1.3.6 1.3 1.3 0 .8-.6 1.3-1.3 1.3zm4.4 0c-.7 0-1.3-.6-1.3-1.3 0-.7.6-1.3 1.3-1.3.7 0 1.3.6 1.3 1.3 0 .8-.6 1.3-1.3 1.3zm2.6 3.5c-.7 0-1.3-.6-1.3-1.3s.6-1.3 1.3-1.3c.7 0 1.3.6 1.3 1.3s-.6 1.3-1.3 1.3z"/></g></g><text id="XMLID_7_" transform="translate(31.75 25.98)" class="st1 st2"></text><text id="XMLID_12_" transform="translate(0 36.795)" class="st4 st1 st2">k</text><text id="XMLID_13_" transform="translate(85.337 37.094)" class="st3 st1 st2">r</text><g id="XMLID_14_"><g id="XMLID_15_"><path id="XMLID_16_" class="st5" d="M77.5 21.4c-4.3 0-7.9 3.5-7.9 7.9 0 4.3 3.5 7.9 7.9 7.9.7 0 4.7.2 4.8-1 .1-.9-1.7-1.2-3.5-1.1-.5-.1-.7-.5-.7-.9 0-.7.6-1.3 1.3-1.3H81c2.4 0 4.4-2 4.4-4.4-.1-4-3.6-7.1-7.9-7.1zm-4.8 7.8c-.7 0-1.3-.6-1.3-1.3s.6-1.3 1.3-1.3c.7 0 1.3.6 1.3 1.3s-.6 1.3-1.3 1.3zm2.6-3.5c-.7 0-1.3-.6-1.3-1.3 0-.7.6-1.3 1.3-1.3.7 0 1.3.6 1.3 1.3 0 .8-.6 1.3-1.3 1.3zm4.4 0c-.7 0-1.3-.6-1.3-1.3 0-.7.6-1.3 1.3-1.3.7 0 1.3.6 1.3 1.3 0 .8-.6 1.3-1.3 1.3zm2.6 3.5c-.7 0-1.3-.6-1.3-1.3s.6-1.3 1.3-1.3c.7 0 1.3.6 1.3 1.3s-.6 1.3-1.3 1.3z"/></g></g></svg>