<?xml version="1.0" encoding="utf-8"?>
<!-- Generator: Adobe Illustrator 19.0.0, SVG Export Plug-In . SVG Version: 6.00 Build 0)  -->
<svg version="1.1" id="Layer_1" xmlns="http://www.w3.org/2000/svg" xmlns:xlink="http://www.w3.org/1999/xlink" x="0px" y="0px"
	 viewBox="0 0 96.7 46.1" style="enable-background:new 0 0 96.7 46.1;" xml:space="preserve">
<style type="text/css">
	.st0{fill:#00A868;}
	.st1{font-family:'RobotoSlab-Bold';}
	.st2{font-size:30px;}
	.st3{fill:#5C5C5C;}
	.st4{font-family:'Exo-Black';}
	.st5{fill:#0091FF;}
	.st6{fill:#FF8800;}
</style>
<text id="XMLID_1_" transform="matrix(1 0 0 1 34.3366 36.7949)"><tspan x="0" y="0" class="st0 st1 st2">w</tspan><tspan x="24.1" y="0" class="st3 st1 st2">l</tspan></text>
<g id="XMLID_2_">
	<g id="XMLID_3_">
		<path id="XMLID_10_" class="st3" d="M26.3,21c-4.4,0-8.1,3.6-8.1,8.1c0,4.4,3.6,8.1,8.1,8.1c0.8,0,4.8,0.2,4.9-1.1
			c0.1-1-1.8-1.2-3.6-1.2c-0.5-0.1-0.7-0.5-0.7-0.9c0-0.8,0.6-1.3,1.3-1.3h1.6c2.5,0,4.5-2,4.5-4.5C34.3,24.2,30.7,21,26.3,21z
			 M21.4,29c-0.8,0-1.3-0.6-1.3-1.3s0.6-1.3,1.3-1.3c0.8,0,1.3,0.6,1.3,1.3S22.1,29,21.4,29z M24,25.5c-0.8,0-1.3-0.6-1.3-1.3
			c0-0.8,0.6-1.3,1.3-1.3c0.8,0,1.3,0.6,1.3,1.3C25.4,24.9,24.8,25.5,24,25.5z M28.5,25.5c-0.8,0-1.3-0.6-1.3-1.3
			c0-0.8,0.6-1.3,1.3-1.3c0.8,0,1.3,0.6,1.3,1.3C29.9,24.9,29.3,25.5,28.5,25.5z M31.2,29c-0.8,0-1.3-0.6-1.3-1.3s0.6-1.3,1.3-1.3
			c0.8,0,1.3,0.6,1.3,1.3S32,29,31.2,29z"/>
	</g>
</g>
<text id="XMLID_4_" transform="matrix(1 0 0 1 31.75 25.98)" class="st4 st2">  </text>
<text id="XMLID_12_" transform="matrix(1 0 0 1 0 36.7948)" class="st5 st1 st2">k</text>
<text id="XMLID_13_" transform="matrix(1 0 0 1 84.0254 37.0943)" class="st3 st1 st2">r</text>
<g id="XMLID_14_">
	<g id="XMLID_15_">
		<path id="XMLID_16_" class="st6" d="M76,21c-4.4,0-8.1,3.6-8.1,8.1c0,4.4,3.6,8.1,8.1,8.1c0.8,0,4.8,0.2,4.9-1.1
			c0.1-1-1.8-1.2-3.6-1.2c-0.5-0.1-0.7-0.5-0.7-0.9c0-0.8,0.6-1.3,1.3-1.3h1.6c2.5,0,4.5-2,4.5-4.5C84,24.2,80.4,21,76,21z M71.1,29
			c-0.8,0-1.3-0.6-1.3-1.3s0.6-1.3,1.3-1.3c0.8,0,1.3,0.6,1.3,1.3S71.8,29,71.1,29z M73.7,25.5c-0.8,0-1.3-0.6-1.3-1.3
			c0-0.8,0.6-1.3,1.3-1.3c0.8,0,1.3,0.6,1.3,1.3C75.1,24.9,74.5,25.5,73.7,25.5z M78.2,25.5c-0.8,0-1.3-0.6-1.3-1.3
			c0-0.8,0.6-1.3,1.3-1.3c0.8,0,1.3,0.6,1.3,1.3C79.6,24.9,79,25.5,78.2,25.5z M80.9,29c-0.8,0-1.3-0.6-1.3-1.3s0.6-1.3,1.3-1.3
			c0.8,0,1.3,0.6,1.3,1.3S81.7,29,80.9,29z"/>
	</g>
</g>
</svg>
